<?xml version="1.0" encoding="utf-8"?>
<!-- Generator: Adobe Illustrator 16.0.0, SVG Export Plug-In . SVG Version: 6.00 Build 0)  -->
<!DOCTYPE svg PUBLIC "-//W3C//DTD SVG 1.1//EN" "http://www.w3.org/Graphics/SVG/1.1/DTD/svg11.dtd">
<svg version="1.1" id="Слой_1" xmlns="http://www.w3.org/2000/svg" xmlns:xlink="http://www.w3.org/1999/xlink" x="0px" y="0px"
	 width="200px" height="74.449px" viewBox="0 0 200 74.449" enable-background="new 0 0 200 74.449" xml:space="preserve">
<g>
	<g>
		<path d="M2.665,65.383c-0.409,1.069-0.954,2.413-1.381,3.658H1.245c0.097-1.479,0.116-2.881,0.116-4.514v-3.23H0v9.416h1.537
			c0.7-1.517,1.556-3.658,1.868-4.435c0.408-1.032,0.777-2.083,1.127-3.251h0.04c-0.098,1.44-0.137,2.55-0.137,4.593v3.093h1.383
			v-9.416H4.24L2.665,65.383z"/>
		<polygon points="13.347,65.285 10.564,65.285 10.564,61.297 9.066,61.297 9.066,70.713 10.564,70.713 10.564,66.57 13.347,66.57 
			13.347,70.713 14.844,70.713 14.844,61.297 13.347,61.297 		"/>
		<path d="M22.375,61.161V57.25h-1.344v3.93c-2.023,0.273-3.326,1.829-3.326,4.845c0,3.074,1.303,4.611,3.326,4.825v3.6h1.344v-3.6
			c2.062-0.232,3.346-1.789,3.346-4.825C25.721,62.95,24.359,61.413,22.375,61.161z M21.031,69.818
			c-1.517-0.369-1.926-2.237-1.926-3.813c0-1.556,0.409-3.443,1.926-3.813V69.818z M22.375,69.818v-7.627
			c1.537,0.409,1.926,2.258,1.926,3.813C24.301,67.639,23.892,69.449,22.375,69.818z"/>
		<path d="M31.306,61.141c-1.616,0-3.152,1.439-3.152,4.884c0,3.309,1.362,4.844,3.055,4.844c1.439,0,3.132-1.224,3.132-4.863
			C34.34,62.717,32.978,61.141,31.306,61.141z M31.285,69.683c-1.361,0-1.635-2.121-1.635-3.678c0-1.44,0.253-3.657,1.596-3.657
			c1.323,0,1.576,2.217,1.576,3.657C32.822,67.465,32.569,69.683,31.285,69.683z"/>
		<path d="M40.527,61.141c-0.739,0-1.479,0.35-1.984,1.362h-0.039l-0.078-1.206h-1.343c0.021,0.662,0.078,1.498,0.078,2.938v10.214
			h1.498V69.78h0.039c0.253,0.525,0.759,1.088,1.635,1.088c1.479,0,2.918-1.4,2.918-4.882
			C43.251,62.893,42.162,61.141,40.527,61.141z M40.099,69.623c-0.408,0-1.089-0.252-1.381-1.595
			c-0.059-0.213-0.059-0.485-0.059-0.777v-2.395c0-0.252,0-0.484,0.039-0.719c0.098-0.855,0.7-1.713,1.382-1.713
			c1.187,0,1.653,1.635,1.653,3.58C41.733,67.912,41.344,69.623,40.099,69.623z"/>
		<path d="M52.278,61.297l-1.188,4.144c-0.331,1.109-0.507,1.791-0.797,2.996h-0.04c-0.292-1.147-0.525-1.906-0.855-2.996
			l-1.226-4.144h-1.771l-0.661,9.416h1.382l0.155-3.969c0.077-1.322,0.116-2.549,0.137-4.046h0.038
			c0.253,1.147,0.584,2.47,0.973,3.773l1.227,4.184h1.09l1.264-4.319c0.39-1.381,0.721-2.646,0.935-3.619h0.058
			c0.039,1.79,0.078,2.705,0.137,3.95l0.175,4.046h1.421l-0.643-9.416H52.278z"/>
		<path d="M62.609,64.507c0-2.121-0.817-3.366-2.704-3.366c-0.935,0-1.811,0.331-2.199,0.623l0.331,1.051
			c0.447-0.292,0.973-0.486,1.556-0.486c1.188,0,1.499,0.876,1.499,2.14v0.292c-2.121,0.02-4.008,1.07-4.008,3.426
			c0,1.614,0.972,2.683,2.237,2.683c0.798,0,1.459-0.427,1.868-1.146h0.058l0.098,0.99h1.361c-0.097-0.603-0.097-1.419-0.097-2.14
			V64.507z M61.13,67.757c0,0.155,0,0.351-0.038,0.524c-0.176,0.935-0.739,1.421-1.401,1.421c-0.524,0-1.147-0.448-1.147-1.674
			c0-2.042,1.81-2.179,2.587-2.179V67.757z"/>
		<polygon points="71.56,61.297 70.062,61.297 70.062,69.468 67.377,69.468 67.377,61.297 65.878,61.297 65.878,70.713 
			71.033,70.713 71.131,73.224 72.26,73.224 72.357,69.565 71.56,69.546 		"/>
		<path d="M77.707,65.383c-0.408,1.069-0.953,2.413-1.381,3.658h-0.039c0.097-1.479,0.117-2.881,0.117-4.514v-3.23h-1.362v9.416
			h1.537c0.7-1.517,1.556-3.658,1.868-4.435c0.408-1.032,0.777-2.083,1.127-3.251h0.041c-0.098,1.44-0.137,2.55-0.137,4.593v3.093
			h1.382v-9.416h-1.577L77.707,65.383z"/>
		<path d="M86.852,61.141c-1.615,0-3.151,1.439-3.151,4.884c0,3.309,1.361,4.844,3.054,4.844c1.439,0,3.133-1.224,3.133-4.863
			C89.887,62.717,88.524,61.141,86.852,61.141z M86.832,69.683c-1.361,0-1.635-2.121-1.635-3.678c0-1.44,0.253-3.657,1.596-3.657
			c1.323,0,1.576,2.217,1.576,3.657C88.369,67.465,88.116,69.683,86.832,69.683z"/>
		<polygon points="97.008,65.285 94.226,65.285 94.226,61.297 92.728,61.297 92.728,70.713 94.226,70.713 94.226,66.57 
			97.008,66.57 97.008,70.713 98.506,70.713 98.506,61.297 97.008,61.297 		"/>
		<polygon points="106.056,65.285 103.273,65.285 103.273,61.297 101.775,61.297 101.775,70.713 103.273,70.713 103.273,66.57 
			106.056,66.57 106.056,70.713 107.553,70.713 107.553,61.297 106.056,61.297 		"/>
		<path d="M113.564,61.141c-1.615,0-3.151,1.439-3.151,4.884c0,3.309,1.361,4.844,3.054,4.844c1.439,0,3.133-1.224,3.133-4.863
			C116.6,62.717,115.237,61.141,113.564,61.141z M113.545,69.683c-1.361,0-1.635-2.121-1.635-3.678c0-1.44,0.253-3.657,1.596-3.657
			c1.323,0,1.576,2.217,1.576,3.657C115.082,67.465,114.829,69.683,113.545,69.683z"/>
		<path d="M122.203,61.141c-1.887,0-3.171,1.907-3.171,4.961c0,2.881,1.166,4.729,3.424,4.729c0.739,0,1.537-0.155,2.062-0.447
			l-0.232-1.11c-0.37,0.215-0.915,0.371-1.558,0.371c-1.089,0-2.218-0.624-2.237-3.503h4.378c0.02-0.232,0.02-0.487,0.02-0.837
			C124.888,63.164,124.129,61.141,122.203,61.141z M120.51,65.033c0.06-1.285,0.564-2.725,1.537-2.725
			c0.721,0,1.439,0.837,1.401,2.725H120.51z"/>
		<path d="M136.874,64.507c0-2.121-0.818-3.366-2.705-3.366c-0.935,0-1.81,0.331-2.198,0.623l0.33,1.051
			c0.447-0.292,0.973-0.486,1.557-0.486c1.188,0,1.498,0.876,1.498,2.14v0.292c-2.121,0.02-4.008,1.07-4.008,3.426
			c0,1.614,0.973,2.683,2.237,2.683c0.798,0,1.46-0.427,1.868-1.146h0.059l0.097,0.99h1.362c-0.097-0.603-0.097-1.419-0.097-2.14
			V64.507z M135.395,67.757c0,0.155,0,0.351-0.039,0.524c-0.176,0.935-0.739,1.421-1.4,1.421c-0.525,0-1.147-0.448-1.147-1.674
			c0-2.042,1.809-2.179,2.587-2.179V67.757z"/>
		<polygon points="140.143,70.713 141.621,70.713 141.621,62.58 144.52,62.58 144.52,61.297 140.143,61.297 		"/>
		<path d="M149.402,61.141c-1.887,0-3.17,1.907-3.17,4.961c0,2.881,1.166,4.729,3.424,4.729c0.738,0,1.537-0.155,2.062-0.447
			l-0.233-1.11c-0.369,0.215-0.914,0.371-1.557,0.371c-1.089,0-2.218-0.624-2.237-3.503h4.378c0.02-0.232,0.02-0.487,0.02-0.837
			C152.088,63.164,151.33,61.141,149.402,61.141z M147.71,65.033c0.06-1.285,0.564-2.725,1.537-2.725
			c0.721,0,1.439,0.837,1.401,2.725H147.71z"/>
		<polygon points="159.15,65.285 156.368,65.285 156.368,61.297 154.87,61.297 154.87,70.713 156.368,70.713 156.368,66.57 
			159.15,66.57 159.15,70.713 160.647,70.713 160.647,61.297 159.15,61.297 		"/>
		<polygon points="162.982,62.562 165.124,62.562 165.124,70.713 166.622,70.713 166.622,62.562 168.762,62.562 168.762,61.297 
			162.982,61.297 		"/>
		<path d="M174.093,62.425c0.485,0,0.875,0.155,1.069,0.253l0.292-1.225c-0.271-0.156-0.816-0.292-1.323-0.292
			c-2.354,0-3.715,2.198-3.715,4.903c0,3.111,1.38,4.767,3.443,4.767c0.661,0,1.226-0.155,1.556-0.351l-0.194-1.147
			c-0.351,0.155-0.681,0.253-1.09,0.253c-1.381,0-2.219-1.323-2.219-3.521C171.912,64.215,172.594,62.425,174.093,62.425z"/>
		<polygon points="177.478,62.562 179.618,62.562 179.618,70.713 181.117,70.713 181.117,62.562 183.257,62.562 183.257,61.297 
			177.478,61.297 		"/>
		<path d="M189.287,65.752v-0.038c1.07-0.273,1.868-1.109,1.868-2.238c0-1.887-1.945-2.335-3.502-2.335
			c-0.759,0-1.518,0.079-2.12,0.194v9.418c0.369,0.058,1.049,0.097,1.925,0.097c1.811,0,4.087-0.544,4.087-2.742
			C191.545,66.822,190.649,65.986,189.287,65.752z M186.992,62.309c0.252-0.039,0.505-0.078,0.778-0.078
			c1.05,0,1.945,0.37,1.945,1.459c0,0.993-1.147,1.596-2.043,1.596h-0.681V62.309z M187.75,69.78c-0.311,0-0.603-0.039-0.777-0.058
			v-3.366h0.643c1.186,0,2.432,0.485,2.432,1.751C190.047,69.371,188.898,69.78,187.75,69.78z"/>
		<path d="M197.051,61.141c-1.616,0-3.152,1.439-3.152,4.884c0,3.309,1.362,4.844,3.055,4.844c1.439,0,3.132-1.224,3.132-4.863
			C200.085,62.717,198.723,61.141,197.051,61.141z M197.03,69.683c-1.361,0-1.635-2.121-1.635-3.678c0-1.44,0.253-3.657,1.597-3.657
			c1.322,0,1.575,2.217,1.575,3.657C198.567,67.465,198.314,69.683,197.03,69.683z"/>
	</g>
	<rect x="0.154" y="57.001" width="199.436" height="0.363"/>
	<polygon points="114.964,9.031 117.363,9.031 117.363,2.071 119.343,2.071 119.343,0.145 112.982,0.145 112.982,2.071 
		114.964,2.071 	"/>
	<path d="M136.378,5.615c0.344-0.854,0.582-1.601,0.853-2.525h0.054c-0.054,1.181-0.144,2.198-0.144,3.997v1.944h2.161V0.145h-2.253
		l-1.344,3.381c-0.292,0.708-0.689,1.707-0.981,2.634h-0.055c0.092-0.908,0.182-2.471,0.182-4.088V0.145h-2.145v8.887h2.218
		C135.432,7.958,136.141,6.213,136.378,5.615z"/>
	<path d="M153.284,12.52h2.38V8.304h0.035c0.255,0.418,0.747,0.872,1.472,0.872c1.49,0,2.891-1.435,2.891-4.596
		c0-2.472-0.8-4.58-2.764-4.58c-0.816,0-1.487,0.437-1.853,1.163h-0.035l-0.127-1.019h-2.071c0.035,0.836,0.072,1.744,0.072,2.818
		V12.52z M155.664,3.398c0-0.22,0.017-0.455,0.108-0.636c0.092-0.419,0.436-0.765,0.801-0.765c0.708,0,1.108,0.909,1.108,2.598
		c0,1.401-0.292,2.636-1.127,2.636c-0.273,0-0.582-0.145-0.764-0.69c-0.092-0.182-0.127-0.455-0.127-0.764V3.398z"/>
	<path d="M173.279,6.469c0,1.581,1,2.707,2.345,2.707c0.781,0,1.471-0.327,1.963-1.018h0.035l0.127,0.873h2.145
		c-0.108-0.601-0.146-1.328-0.146-2.036V3.688c0-1.8-0.436-3.688-3.143-3.688c-1.236,0-2.271,0.383-2.762,0.672l0.436,1.599
		c0.527-0.326,1.109-0.509,1.817-0.509c0.836,0,1.253,0.509,1.253,1.201v0.198C175.334,3.179,173.279,4.143,173.279,6.469z
		 M177.422,4.707v1.544c0,0.145-0.017,0.29-0.054,0.417c-0.163,0.527-0.601,0.764-0.981,0.764c-0.363,0-0.853-0.327-0.853-1.219
		C175.534,4.979,176.624,4.725,177.422,4.707z"/>
	<path d="M197.2,9.14c0.673,0,1.271-0.146,1.509-0.255l-0.2-1.871c-0.254,0.127-0.546,0.182-0.892,0.182
		c-1.106,0-1.78-0.982-1.78-2.6c0-1.544,0.674-2.634,1.817-2.634c0.4,0,0.689,0.092,0.89,0.165l0.309-1.873
		c-0.235-0.109-0.744-0.236-1.307-0.236c-2.452,0-4.069,1.909-4.069,4.651C193.477,7.576,194.947,9.14,197.2,9.14z"/>
	<rect x="112.804" y="35.429" fill="#2E669D" width="86.786" height="8.841"/>
	<rect x="0.154" y="0.191" fill="#641627" width="95.296" height="8.842"/>
	<polygon points="95.45,54.651 104.291,54.651 104.291,26.717 199.59,26.717 199.59,17.875 0.154,17.875 0.154,26.717 95.45,26.717 
			"/>
</g>
</svg>
