<?xml version="1.0" encoding="utf-8"?>
<!-- Generator: Adobe Illustrator 16.2.0, SVG Export Plug-In . SVG Version: 6.00 Build 0)  -->
<!DOCTYPE svg PUBLIC "-//W3C//DTD SVG 1.1//EN" "http://www.w3.org/Graphics/SVG/1.1/DTD/svg11.dtd">
<svg version="1.1" id="Слой_1" xmlns="http://www.w3.org/2000/svg" xmlns:xlink="http://www.w3.org/1999/xlink" x="0px" y="0px"
	 width="200px" height="78.035px" viewBox="0 0 200 78.035" enable-background="new 0 0 200 78.035" xml:space="preserve">
<g>
	<path d="M2.664,68.973c-0.408,1.069-0.953,2.412-1.38,3.656H1.245c0.097-1.479,0.117-2.878,0.117-4.512v-3.228H0v9.412h1.537
		c0.7-1.516,1.555-3.656,1.867-4.433c0.408-1.032,0.777-2.083,1.127-3.25h0.04c-0.098,1.44-0.137,2.548-0.137,4.59v3.092h1.381
		v-9.412H4.239L2.664,68.973z"/>
	<polygon points="13.341,68.875 10.56,68.875 10.56,64.889 9.063,64.889 9.063,74.301 10.56,74.301 10.56,70.16 13.341,70.16 
		13.341,74.301 14.838,74.301 14.838,64.889 13.341,64.889 	"/>
	<path d="M22.365,64.752v-3.909h-1.342v3.928C19,65.044,17.698,66.6,17.698,69.614c0,3.073,1.302,4.609,3.325,4.824v3.598h1.342
		v-3.598c2.062-0.233,3.345-1.789,3.345-4.824C25.709,66.541,24.349,65.004,22.365,64.752z M21.022,73.407
		c-1.516-0.369-1.925-2.236-1.925-3.812c0-1.556,0.409-3.442,1.925-3.812V73.407z M22.365,73.407v-7.624
		c1.537,0.408,1.926,2.256,1.926,3.812C24.291,71.228,23.881,73.038,22.365,73.407z"/>
	<path d="M31.292,64.732c-1.615,0-3.15,1.439-3.15,4.881c0,3.307,1.361,4.842,3.053,4.842c1.439,0,3.131-1.223,3.131-4.861
		C34.325,66.308,32.964,64.732,31.292,64.732z M31.272,73.271c-1.361,0-1.634-2.12-1.634-3.675c0-1.44,0.253-3.657,1.595-3.657
		c1.322,0,1.575,2.216,1.575,3.657C32.809,71.054,32.556,73.271,31.272,73.271z"/>
	<path d="M40.51,64.732c-0.739,0-1.478,0.35-1.983,1.361h-0.039l-0.078-1.205h-1.342c0.02,0.661,0.078,1.497,0.078,2.937v10.209
		h1.498v-4.667h0.039c0.253,0.526,0.759,1.088,1.634,1.088c1.478,0,2.917-1.4,2.917-4.88C43.232,66.483,42.144,64.732,40.51,64.732z
		 M40.082,73.211c-0.408,0-1.088-0.251-1.38-1.594c-0.059-0.213-0.059-0.486-0.059-0.777v-2.393c0-0.252,0-0.485,0.039-0.719
		c0.098-0.855,0.7-1.712,1.381-1.712c1.186,0,1.653,1.634,1.653,3.579C41.716,71.501,41.326,73.211,40.082,73.211z"/>
	<path d="M52.256,64.889l-1.187,4.141c-0.331,1.109-0.506,1.791-0.796,2.995h-0.04c-0.292-1.147-0.525-1.906-0.855-2.995
		l-1.225-4.141h-1.771l-0.661,9.412h1.381l0.155-3.967c0.078-1.323,0.117-2.548,0.137-4.045h0.039
		c0.253,1.147,0.583,2.469,0.972,3.772l1.226,4.182h1.089l1.264-4.317c0.39-1.38,0.72-2.646,0.934-3.618h0.058
		c0.039,1.789,0.078,2.703,0.137,3.948l0.175,4.044h1.42l-0.643-9.412H52.256z"/>
	<path d="M62.583,68.097c0-2.12-0.817-3.365-2.704-3.365c-0.934,0-1.809,0.331-2.198,0.623l0.331,1.051
		c0.447-0.292,0.972-0.486,1.556-0.486c1.187,0,1.498,0.875,1.498,2.139v0.292c-2.12,0.019-4.006,1.07-4.006,3.424
		c0,1.614,0.972,2.682,2.236,2.682c0.798,0,1.459-0.427,1.867-1.146h0.058l0.098,0.99h1.361c-0.097-0.602-0.097-1.418-0.097-2.139
		V68.097z M61.104,71.346c0,0.155,0,0.351-0.039,0.524c-0.175,0.935-0.739,1.42-1.4,1.42c-0.525,0-1.147-0.448-1.147-1.673
		c0-2.041,1.808-2.178,2.586-2.178V71.346z"/>
	<polygon points="71.529,64.889 70.031,64.889 70.031,73.056 67.348,73.056 67.348,64.889 65.85,64.889 65.85,74.301 71.003,74.301 
		71.101,76.811 72.229,76.811 72.327,73.154 71.529,73.134 	"/>
	<path d="M77.674,68.973c-0.408,1.069-0.953,2.412-1.38,3.656h-0.039c0.097-1.479,0.117-2.878,0.117-4.512v-3.228H75.01v9.412h1.537
		c0.7-1.516,1.555-3.656,1.867-4.433c0.408-1.032,0.777-2.083,1.127-3.25h0.04c-0.098,1.44-0.137,2.548-0.137,4.59v3.092h1.381
		v-9.412h-1.577L77.674,68.973z"/>
	<path d="M86.815,64.732c-1.615,0-3.15,1.439-3.15,4.881c0,3.307,1.361,4.842,3.053,4.842c1.439,0,3.131-1.223,3.131-4.861
		C89.848,66.308,88.487,64.732,86.815,64.732z M86.795,73.271c-1.361,0-1.634-2.12-1.634-3.675c0-1.44,0.253-3.657,1.595-3.657
		c1.322,0,1.575,2.216,1.575,3.657C88.332,71.054,88.079,73.271,86.795,73.271z"/>
	<polygon points="96.967,68.875 94.186,68.875 94.186,64.889 92.688,64.889 92.688,74.301 94.186,74.301 94.186,70.16 96.967,70.16 
		96.967,74.301 98.463,74.301 98.463,64.889 96.967,64.889 	"/>
	<polygon points="106.011,68.875 103.229,68.875 103.229,64.889 101.732,64.889 101.732,74.301 103.229,74.301 103.229,70.16 
		106.011,70.16 106.011,74.301 107.507,74.301 107.507,64.889 106.011,64.889 	"/>
	<path d="M113.517,64.732c-1.615,0-3.15,1.439-3.15,4.881c0,3.307,1.361,4.842,3.053,4.842c1.439,0,3.131-1.223,3.131-4.861
		C116.55,66.308,115.188,64.732,113.517,64.732z M113.497,73.271c-1.361,0-1.634-2.12-1.634-3.675c0-1.44,0.253-3.657,1.596-3.657
		c1.322,0,1.575,2.216,1.575,3.657C115.033,71.054,114.78,73.271,113.497,73.271z"/>
	<path d="M122.151,64.732c-1.886,0-3.169,1.906-3.169,4.959c0,2.879,1.166,4.727,3.422,4.727c0.739,0,1.537-0.155,2.061-0.447
		l-0.233-1.109c-0.369,0.214-0.914,0.371-1.556,0.371c-1.088,0-2.217-0.624-2.237-3.501h4.376c0.019-0.233,0.019-0.487,0.019-0.836
		C124.834,66.755,124.077,64.732,122.151,64.732z M120.459,68.623c0.059-1.285,0.563-2.724,1.537-2.724
		c0.72,0,1.439,0.837,1.4,2.724H120.459z"/>
	<path d="M136.816,68.097c0-2.12-0.818-3.365-2.704-3.365c-0.934,0-1.81,0.331-2.198,0.623l0.331,1.051
		c0.447-0.292,0.972-0.486,1.555-0.486c1.187,0,1.498,0.875,1.498,2.139v0.292c-2.12,0.019-4.006,1.07-4.006,3.424
		c0,1.614,0.972,2.682,2.237,2.682c0.797,0,1.458-0.427,1.867-1.146h0.059l0.096,0.99h1.361c-0.096-0.602-0.096-1.418-0.096-2.139
		V68.097z M135.337,71.346c0,0.155,0,0.351-0.039,0.524c-0.175,0.935-0.739,1.42-1.4,1.42c-0.524,0-1.147-0.448-1.147-1.673
		c0-2.041,1.808-2.178,2.586-2.178V71.346z"/>
	<polygon points="140.083,74.301 141.561,74.301 141.561,66.171 144.458,66.171 144.458,64.889 140.083,64.889 	"/>
	<path d="M149.339,64.732c-1.886,0-3.169,1.906-3.169,4.959c0,2.879,1.166,4.727,3.422,4.727c0.739,0,1.537-0.155,2.061-0.447
		l-0.233-1.109c-0.369,0.214-0.914,0.371-1.556,0.371c-1.088,0-2.217-0.624-2.237-3.501h4.376c0.019-0.233,0.019-0.487,0.019-0.836
		C152.023,66.755,151.265,64.732,149.339,64.732z M147.647,68.623c0.059-1.285,0.563-2.724,1.537-2.724
		c0.72,0,1.439,0.837,1.4,2.724H147.647z"/>
	<polygon points="159.083,68.875 156.302,68.875 156.302,64.889 154.804,64.889 154.804,74.301 156.302,74.301 156.302,70.16 
		159.083,70.16 159.083,74.301 160.58,74.301 160.58,64.889 159.083,64.889 	"/>
	<polygon points="162.914,66.153 165.054,66.153 165.054,74.301 166.551,74.301 166.551,66.153 168.69,66.153 168.69,64.889 
		162.914,64.889 	"/>
	<path d="M174.019,66.016c0.486,0,0.875,0.155,1.069,0.253l0.292-1.225c-0.272-0.155-0.816-0.292-1.323-0.292
		c-2.353,0-3.714,2.198-3.714,4.901c0,3.111,1.38,4.765,3.442,4.765c0.661,0,1.225-0.155,1.555-0.351l-0.194-1.147
		c-0.351,0.155-0.681,0.253-1.09,0.253c-1.381,0-2.217-1.322-2.217-3.52C171.84,67.806,172.521,66.016,174.019,66.016z"/>
	<polygon points="177.402,66.153 179.542,66.153 179.542,74.301 181.04,74.301 181.04,66.153 183.179,66.153 183.179,64.889 
		177.402,64.889 	"/>
	<path d="M189.207,69.342v-0.039c1.069-0.273,1.867-1.108,1.867-2.236c0-1.886-1.945-2.334-3.5-2.334
		c-0.759,0-1.518,0.079-2.12,0.194v9.414c0.369,0.058,1.049,0.097,1.925,0.097c1.809,0,4.084-0.543,4.084-2.741
		C191.463,70.412,190.568,69.576,189.207,69.342z M186.913,65.899c0.252-0.039,0.505-0.078,0.778-0.078
		c1.049,0,1.945,0.37,1.945,1.458c0,0.993-1.147,1.595-2.042,1.595h-0.68V65.899z M187.67,73.368c-0.311,0-0.603-0.039-0.778-0.058
		v-3.365h0.643c1.186,0,2.431,0.486,2.431,1.75C189.966,72.96,188.819,73.368,187.67,73.368z"/>
	<path d="M196.967,64.732c-1.615,0-3.15,1.439-3.15,4.881c0,3.307,1.361,4.842,3.053,4.842c1.439,0,3.131-1.223,3.131-4.861
		C200,66.308,198.639,64.732,196.967,64.732z M196.947,73.271c-1.361,0-1.634-2.12-1.634-3.675c0-1.44,0.253-3.657,1.595-3.657
		c1.322,0,1.575,2.216,1.575,3.657C198.483,71.054,198.23,73.271,196.947,73.271z"/>
	<rect x="0.154" y="58.183" width="199.351" height="0.362"/>
	<polygon points="114.916,9.027 117.313,9.027 117.313,2.071 119.292,2.071 119.292,0.145 112.934,0.145 112.934,2.071 
		114.916,2.071 	"/>
	<path d="M136.32,5.613c0.344-0.854,0.581-1.6,0.852-2.525h0.054c-0.054,1.18-0.144,2.198-0.144,3.995v1.944h2.16V0.145h-2.251
		l-1.344,3.379c-0.292,0.708-0.689,1.707-0.981,2.633h-0.054c0.092-0.908,0.181-2.47,0.181-4.086V0.145h-2.144v8.883h2.216
		C135.375,7.954,136.083,6.211,136.32,5.613z"/>
	<path d="M153.219,12.514h2.379V8.3h0.036c0.254,0.417,0.746,0.872,1.47,0.872c1.49,0,2.89-1.434,2.89-4.594
		c0-2.471-0.8-4.578-2.762-4.578c-0.817,0-1.487,0.437-1.852,1.163h-0.035l-0.127-1.018h-2.071c0.035,0.835,0.073,1.744,0.073,2.817
		V12.514z M155.598,3.396c0-0.219,0.017-0.454,0.108-0.635c0.092-0.419,0.435-0.764,0.8-0.764c0.708,0,1.108,0.908,1.108,2.597
		c0,1.4-0.292,2.634-1.127,2.634c-0.273,0-0.581-0.145-0.762-0.691c-0.092-0.181-0.127-0.454-0.127-0.762V3.396z"/>
	<path d="M173.206,6.466c0,1.58,1,2.706,2.344,2.706c0.781,0,1.47-0.327,1.962-1.018h0.035l0.127,0.873h2.144
		c-0.108-0.6-0.146-1.327-0.146-2.036V3.687c0-1.799-0.435-3.687-3.141-3.687c-1.235,0-2.271,0.382-2.76,0.672l0.435,1.598
		c0.527-0.326,1.108-0.508,1.816-0.508c0.835,0,1.252,0.508,1.252,1.2V3.16C175.26,3.178,173.206,4.141,173.206,6.466z
		 M177.347,4.705v1.544c0,0.145-0.017,0.289-0.054,0.417c-0.162,0.527-0.6,0.763-0.981,0.763c-0.362,0-0.852-0.327-0.852-1.217
		C175.459,4.977,176.549,4.723,177.347,4.705z"/>
	<path d="M197.116,9.135c0.673,0,1.271-0.146,1.508-0.254l-0.2-1.871c-0.254,0.127-0.546,0.181-0.892,0.181
		c-1.105,0-1.779-0.981-1.779-2.598c0-1.543,0.673-2.633,1.816-2.633c0.4,0,0.689,0.092,0.89,0.165l0.308-1.872
		c-0.235-0.11-0.743-0.237-1.306-0.237c-2.452,0-4.068,1.908-4.068,4.649C193.394,7.573,194.865,9.135,197.116,9.135z"/>
	<rect x="112.755" y="35.414" fill="#2E669D" width="86.75" height="8.837"/>
	<rect x="0.154" y="0.192" fill="#571C2B" width="95.255" height="8.838"/>
	<polygon points="95.409,54.628 104.247,54.628 104.247,26.705 199.505,26.705 199.505,17.867 0.154,17.867 0.154,26.705 
		95.409,26.705 	"/>
</g>
</svg>
